<svg xmlns="http://www.w3.org/2000/svg" viewBox="0 0 387.72 95.24"><defs><style>.cls-1{fill:#fff;}</style></defs><g id="Layer_2" data-name="Layer 2"><g id="Layer_1-2" data-name="Layer 1"><g id="Layer_2-2" data-name="Layer 2"><g id="Capa_1" data-name="Capa 1"><path class="cls-1" d="M85.22,36.45H80.6a38.46,38.46,0,0,0-67.13-12V10.09a5.56,5.56,0,1,0-6.45,0V36.45H2.59A2.59,2.59,0,0,0,0,39v18.7A2.59,2.59,0,0,0,2.59,60.3H7.48a38,38,0,0,0,5.79,10.91h0a37.49,37.49,0,0,0,3.08,3.58h0c.89.92,1.84,1.79,2.82,2.62a38.51,38.51,0,0,0,7.28,4.83,75.37,75.37,0,0,0,17.45,2,75.9,75.9,0,0,0,17.45-1.94,38.51,38.51,0,0,0,7.28-4.83,36.88,36.88,0,0,0,2.82-2.62h0a37.49,37.49,0,0,0,3.08-3.58h0A39.17,39.17,0,0,0,77.3,67a38.49,38.49,0,0,0,3-6.72h4.9a2.59,2.59,0,0,0,2.59-2.59V39A2.59,2.59,0,0,0,85.22,36.45ZM72,62.24c-.41.82-.87,1.63-1.36,2.41a33.19,33.19,0,0,1-2.19,3.09,31.47,31.47,0,0,1-51.26-3.09c-.49-.78-1-1.59-1.37-2.41a31.53,31.53,0,0,1,1.46-31.1,12.78,12.78,0,1,1,20.1,14.77A13.08,13.08,0,0,1,35.91,47l-2.07,2.1a2.22,2.22,0,0,0,0,3.13l4.27,4.26,4.23,4.23a2.21,2.21,0,0,0,3.11,0l0,0L54,52.24a2.22,2.22,0,0,0,0-3.13L51.9,47a12.73,12.73,0,1,1,13.8-21.4,13.1,13.1,0,0,1,1.4,1.05,12.79,12.79,0,0,1,3.44,4.48A31.51,31.51,0,0,1,72,62.24Z"/><circle class="cls-1" cx="29.18" cy="36.45" r="5.34"/><circle class="cls-1" cx="58.73" cy="36.45" r="5.34"/><path class="cls-1" d="M72.7,79.71c-.41.36-.82.73-1.24,1.08a43.35,43.35,0,0,1-8.1,5.38l-.47.24-.51.12A80.37,80.37,0,0,1,43.9,88.59a80.28,80.28,0,0,1-18.47-2.06l-.51-.12-.47-.24a43.09,43.09,0,0,1-8.11-5.38l-1.2-1c-1.73,1.36-2.7,2.86-2.7,4.45,0,6.06,0,11,31.5,11s31.5-4.92,31.5-11C75.44,82.59,74.46,81.08,72.7,79.71Z"/><path class="cls-1" d="M26.46,82.25A75.82,75.82,0,0,0,43.9,84.19a75.9,75.9,0,0,0,17.45-1.94,38.51,38.51,0,0,0,7.28-4.83h0C62.9,74.84,54,73.21,43.94,73.21s-19,1.64-24.77,4.2h0A38.15,38.15,0,0,0,26.46,82.25Z"/><path class="cls-1" d="M111.93,90.45V50H121l1.59.83c1.92-.21,4-.41,6.2-.58s5-.25,8.43-.25h1.92q4.28,0,6.35,1.34a6.3,6.3,0,0,1,2.75,3.48,15.44,15.44,0,0,1,.67,4.63V69a12,12,0,0,1-1,5,6.94,6.94,0,0,1-3.42,3.36,15.43,15.43,0,0,1-6.64,1.18H136q-3.45,0-6.86-.29l-5.53-.48V90.45Zm13.61-19.93H134c2,0,3.06-.85,3.06-2.56V60.55a3,3,0,0,0-.51-1.91c-.34-.43-1.19-.64-2.55-.64h-.58q-4.08,0-6.35.19c-1.52.13-2.7.23-3.55.32v10a2.83,2.83,0,0,0,.29,1.69A2.88,2.88,0,0,0,125.54,70.52Z"/><path class="cls-1" d="M165.72,78.57a14,14,0,0,1-6.48-1.22,6.35,6.35,0,0,1-3.1-3.35,13.7,13.7,0,0,1-.83-5V59.4a12.54,12.54,0,0,1,.86-4.69,7,7,0,0,1,3.1-3.45A13.06,13.06,0,0,1,165.72,50H179a19.44,19.44,0,0,1,7.63,1.18,6.87,6.87,0,0,1,3.64,3.32,11.62,11.62,0,0,1,1,5v8.18H180q-5.75,0-8.72-.25c-2-.17-3.37-.28-4.18-.33v1c0,1.71,1,2.56,3.07,2.56h2c3.4,0,6.55-.07,9.45-.23s5-.28,6.45-.41L191.91,76c0,.43-.37.83-1.09,1.21a12.56,12.56,0,0,1-3.8,1,55,55,0,0,1-7.7.42Zm1.41-17.12H179.4v-.9a5.16,5.16,0,0,0-.23-1.79c-.15-.34-.6-.55-1.37-.63-1.3-.11-2.6-.15-3.9-.13h-3.7c-2,0-3.07.85-3.07,2.55Z"/><path class="cls-1" d="M198.3,78.57V50h9.27l2.55,1.28c1.79-.34,4-.64,6.49-.9s4.91-.38,7.12-.38h3.19a10.93,10.93,0,0,1,4.92.89,5.61,5.61,0,0,1,2.46,2.24,7.48,7.48,0,0,1,.9,2.71,23,23,0,0,1,.16,2.34V78.57H223.67v-18c0-1.7-1-2.55-3.07-2.55H212a3.51,3.51,0,0,0-1.57.22c-.23.15-.35.54-.35,1.18V78.57Z"/><path class="cls-1" d="M262.44,89.81q-6.57,0-10.73-.22a59.54,59.54,0,0,1-6.39-.61,9.91,9.91,0,0,1-3.06-.86c-.56-.32-.83-.63-.83-.93l3.19-6.7c.47.12,1.51.37,3.13.73a35.08,35.08,0,0,0,7.09.54h9.65a3.92,3.92,0,0,0,2.39-.57,2.23,2.23,0,0,0,.67-2v-2.6a32.29,32.29,0,0,1-5.52.92c-2.37.24-5.12.36-8.27.36H251.9a13.1,13.1,0,0,1-6.29-1.19,5.7,5.7,0,0,1-2.75-3.29,16.9,16.9,0,0,1-.67-5v-9a15.58,15.58,0,0,1,.35-3.19,8.06,8.06,0,0,1,1.35-3.07,7.17,7.17,0,0,1,2.93-2.3,12.42,12.42,0,0,1,5.08-.89h1.92q4.47,0,7.28.13c1.88.08,3.38.19,4.51.32s2.07.25,2.84.38l1.66-.83h9.07V80.36a9.13,9.13,0,0,1-2.68,6.83c-1.79,1.75-4.78,2.63-8.95,2.62Zm-5.36-20h8.49a3.31,3.31,0,0,0,1.73-.26c.17-.17.25-.72.25-1.66V58.45c-.93-.09-1.84-.16-2.71-.23s-1.85-.12-2.94-.16-2.46-.06-4.12-.06h-.7c-2,0-3.07.85-3.07,2.55v6.71c0,1.75,1,2.56,3.07,2.56Z"/><path class="cls-1" d="M296.24,78.57A12.48,12.48,0,0,1,290,77.32a6,6,0,0,1-2.75-3.41,16.28,16.28,0,0,1-.67-4.8V50h11.75V68c0,1.71,1,2.56,3.07,2.56h7.28a3.06,3.06,0,0,0,1.66-.26,3.06,3.06,0,0,0,.26-1.66V50h11.82V78.57H313.1l-2.42-1.28q-2.56.51-5.88.89a57.94,57.94,0,0,1-6.71.39Z"/><path class="cls-1" d="M330.61,78.57V50h11.63V78.57Z"/><path class="cls-1" d="M350.67,78.57V50h9.26l2.56,1.28c1.78-.34,3.95-.64,6.48-.9a69.82,69.82,0,0,1,7.12-.38h3.2a10.93,10.93,0,0,1,4.92.89,5.61,5.61,0,0,1,2.46,2.24,7.46,7.46,0,0,1,.89,2.71,20.44,20.44,0,0,1,.16,2.34V78.57H376v-18c0-1.7-1-2.55-3.07-2.55H364.4a3.47,3.47,0,0,0-1.56.22c-.24.15-.35.54-.35,1.18V78.57Z"/><path class="cls-1" d="M112.31,44.57l8.92-17.9h7.92L138,44.57h-6.55L130,41.32h-9.62l-1.68,3.25Zm9.74-7.46h6.24l-2.95-6.48H125Z"/><path class="cls-1" d="M150.85,44.57a18.81,18.81,0,0,1-3-.18c-.65-.12-1-.26-1-.43l1.81-4c.47.08,1.43.15,2.89.23s3.36.1,5.7.1h2.4a2.37,2.37,0,0,0,1.43-.3,1.1,1.1,0,0,0,.37-.89v-.3a1.15,1.15,0,0,0-.37-1,2.54,2.54,0,0,0-1.43-.28h-7a7.09,7.09,0,0,1-4.48-1.14,4.54,4.54,0,0,1-1.4-3.73V31.6a5.93,5.93,0,0,1,.51-2.46A3.76,3.76,0,0,1,149,27.36a6.8,6.8,0,0,1,3.35-.69h10.1a17.77,17.77,0,0,1,3.09.21c.83.15,1.24.3,1.24.46l-.92,3.78c-.56-.06-1.64-.13-3.21-.2s-3.57-.11-6-.11h-2.19a2.5,2.5,0,0,0-1.34.26,1.1,1.1,0,0,0-.43,1v.21a1.08,1.08,0,0,0,.43,1,2.7,2.7,0,0,0,1.37.27h6.7a11.91,11.91,0,0,1,3.31.4,3.61,3.61,0,0,1,2.1,1.44,5.39,5.39,0,0,1,.73,3.09v1.1a5.56,5.56,0,0,1-1.17,3.68c-.78.94-2.13,1.4-4.06,1.4Z"/><path class="cls-1" d="M183.76,44.57V30.78h-7.24V26.64H197v4.14h-7.34V44.57Z"/><path class="cls-1" d="M226.51,44.88a11.21,11.21,0,0,1-2.71-.38,6.56,6.56,0,0,1-3-1.87l-1.28-1.28a13.86,13.86,0,0,0-1.75-1.5,6.33,6.33,0,0,0-1.91-.86,10,10,0,0,0-2.67-.29H213v5.87h-5.94V29.11l-.3-2.47h14.1a8.64,8.64,0,0,1,3.15.47,4.41,4.41,0,0,1,1.85,1.25,4.24,4.24,0,0,1,.9,1.75,8.43,8.43,0,0,1,.25,2v.58a5.92,5.92,0,0,1-.93,3.27,5.07,5.07,0,0,1-3,2c.51.3,1,.61,1.45.93s1,.64,1.56,1a8.54,8.54,0,0,0,1.88.83,7.88,7.88,0,0,0,1.44.32l.67.06-.91,3.44c-.24.06-.62.13-1.11.2A10.73,10.73,0,0,1,226.51,44.88Zm-10-10.23H218a5.76,5.76,0,0,0,1.29-.09,1.93,1.93,0,0,0,1.42-.66,2.19,2.19,0,0,0,.38-1.29v-.34a1.38,1.38,0,0,0-.38-1,2,2,0,0,0-1.39-.37H213v3.69l1.68.07c.6,0,1.21,0,1.84,0Z"/><path class="cls-1" d="M245.45,44.57c-2.16,0-3.72-.48-4.71-1.44s-1.47-2.5-1.47-4.62V32.7a6.23,6.23,0,0,1,1.46-4.57c1-1,2.55-1.46,4.72-1.46h8.89A6.46,6.46,0,0,1,259,28.13a6.23,6.23,0,0,1,1.48,4.57v5.81c0,2.12-.5,3.65-1.5,4.62a6.47,6.47,0,0,1-4.65,1.44Zm2.1-4.14h4.72q2.37,0,2.37-2.16V32.94q0-2.13-2.37-2.13h-4.72a2.84,2.84,0,0,0-1.83.49,2,2,0,0,0-.61,1.64v5.33a2.07,2.07,0,0,0,.61,1.65A2.78,2.78,0,0,0,247.55,40.43Z"/><path class="cls-1" d="M272.05,44.57V29.11l-.3-2.44h5.6l8.59,8.71,1.18,1.34h.34v-10h5.85v17.9h-5.09l-8.83-8.8-1.19-1.43h-.3V44.57Z"/><path class="cls-1" d="M302.68,44.57l8.92-17.9h7.92l8.89,17.9h-6.55l-1.49-3.25h-9.62l-1.67,3.25Zm9.74-7.46h6.25l-3-6.48h-.3Z"/><path class="cls-1" d="M343.51,44.88a6.62,6.62,0,0,1-4.61-1.43q-1.57-1.44-1.57-4.63V26.67h5.94v11.6a2.17,2.17,0,0,0,.7,1.92,3,3,0,0,0,1.73.49h3.93a2.93,2.93,0,0,0,1.7-.51,2.14,2.14,0,0,0,.73-1.9V26.67h5.85V38.82q0,3.2-1.54,4.63a6.57,6.57,0,0,1-4.61,1.43Z"/><path class="cls-1" d="M374.44,44.57V30.78H367.2V26.64h20.49v4.14h-7.34V44.57Z"/></g></g></g></g></svg>