<svg xmlns="http://www.w3.org/2000/svg" viewBox="0 0 448 331.15"><defs><style>.cls-1{fill:#fff;}</style></defs><g id="Layer_2" data-name="Layer 2"><g id="Layer_1-2" data-name="Layer 1"><path class="cls-1" d="M181.52,25.36c-3.49-9.7-7-19.47-7.07-19.6A9.61,9.61,0,0,0,164.78.05c-2.59.21-63.92,5.49-103.21,37.09C41,56.11,0,167.06,0,263a9.57,9.57,0,0,0,1.28,4.81c28.34,49.76,105.58,62.79,123.18,63.35h.31a9.8,9.8,0,0,0,7.87-4l19-25.79c-31.46-4.78-37.14-11-38.46-12-7.11-5.23-12.36-12.56-6-21.81,4.9-7.18,15.17-9.55,23-5.5,8.07,3.76,29.65,15.85,93.73,15.53,63.63-.19,91.57-13.52,92-13.8,10.69-4.82,19-2.84,24.22,4.3,6.19,9.71,1.78,16.29-5.29,21.5-1.33,1-4.55,3.72-38.34,11.72l18.8,25.84a9.75,9.75,0,0,0,7.87,4,1.56,1.56,0,0,0,.31,0c17.61-.56,94.86-13.58,123.18-63.34A9.61,9.61,0,0,0,448,263c0-95.9-41-206.85-62.08-226.24C347.14,5.55,285.81.27,283.22.05a9.74,9.74,0,0,0-9.67,5.71c-.06.13-3.49,10.06-6.8,19.65,0,0-26.09-3.83-42.75-3.83S181.52,25.36,181.52,25.36ZM160,229.58c-17.68,0-32-21.32-32-47.66s14.32-47.66,32-47.66c17.74-2.64,31.62,21.32,32,47.66C192,208.26,177.68,229.58,160,229.58Zm128,0c-17.68,0-32-21.47-32-48s14.32-47.95,32-47.95,32,21.47,32,47.95S305.68,229.58,288,229.58Z"/></g></g></svg>