<svg xmlns="http://www.w3.org/2000/svg" viewBox="0 0 387.72 95.16"><defs><style>.cls-1{fill:#fff;}</style></defs><g id="Layer_2" data-name="Layer 2"><g id="Capa_1" data-name="Capa 1"><path d="M85.22,36.44H80.6a38.46,38.46,0,0,0-67.13-12V10.08a5.56,5.56,0,1,0-6.45,0V36.44H2.59A2.59,2.59,0,0,0,0,39v18.7a2.59,2.59,0,0,0,2.59,2.59H7.48A38.16,38.16,0,0,0,13.27,71.2h0a37.49,37.49,0,0,0,3.08,3.58h0c.89.92,1.84,1.79,2.82,2.62a38.19,38.19,0,0,0,7.28,4.83A75.46,75.46,0,0,0,43.9,84.18a75.48,75.48,0,0,0,17.45-1.94,38.19,38.19,0,0,0,7.28-4.83c1-.83,1.92-1.7,2.82-2.62h0a37.49,37.49,0,0,0,3.08-3.58h0A39.45,39.45,0,0,0,77.3,67a38.32,38.32,0,0,0,3-6.72h4.9a2.59,2.59,0,0,0,2.59-2.59V39A2.59,2.59,0,0,0,85.22,36.44ZM72,62.23c-.41.82-.87,1.63-1.36,2.41a33.19,33.19,0,0,1-2.19,3.09,31.47,31.47,0,0,1-51.26-3.09c-.49-.78-.95-1.59-1.37-2.41a31.54,31.54,0,0,1,1.46-31.1,12.82,12.82,0,0,1,3.44-4.48A12.73,12.73,0,1,1,35.91,47L33.84,49.1a2.22,2.22,0,0,0,0,3.13l4.27,4.26,4.23,4.23a2.2,2.2,0,0,0,3.13,0L54,52.23a2.22,2.22,0,0,0,0-3.13L51.9,47A12.73,12.73,0,1,1,67.1,26.65a12.82,12.82,0,0,1,3.44,4.48A31.5,31.5,0,0,1,72,62.23Z"/><circle cx="29.18" cy="36.44" r="5.34"/><circle cx="58.73" cy="36.44" r="5.34"/><path d="M72.7,79.7c-.41.36-.82.73-1.24,1.08a43,43,0,0,1-8.1,5.38l-.47.24-.51.12A80.28,80.28,0,0,1,43.9,88.58a80.26,80.26,0,0,1-18.47-2.06l-.51-.12-.47-.24a43.42,43.42,0,0,1-8.11-5.38l-1.2-1c-1.73,1.36-2.7,2.86-2.7,4.45,0,6.06,0,11,31.5,11s31.5-4.92,31.5-11C75.44,82.58,74.46,81.07,72.7,79.7Z"/><path d="M26.46,82.24A75.46,75.46,0,0,0,43.9,84.18a75.48,75.48,0,0,0,17.45-1.94,38.19,38.19,0,0,0,7.28-4.83l0,0C62.9,74.83,54,73.2,43.94,73.2s-19,1.64-24.77,4.2h0A38.19,38.19,0,0,0,26.46,82.24Z"/><path d="M111.93,90.44V49.94H121l1.59.83c1.92-.21,4-.41,6.2-.58s5-.25,8.43-.25h1.92q4.28,0,6.35,1.34a6.31,6.31,0,0,1,2.75,3.48,15.33,15.33,0,0,1,.67,4.63V69a11.9,11.9,0,0,1-1,5,6.91,6.91,0,0,1-3.42,3.36,15.48,15.48,0,0,1-6.64,1.18H136q-3.45,0-6.86-.29l-5.53-.48V90.44Zm13.61-19.93H134c2,0,3.06-.85,3.06-2.56V60.54a3,3,0,0,0-.51-1.91c-.34-.43-1.19-.64-2.55-.64h-.58q-4.08,0-6.35.19c-1.52.13-2.7.23-3.55.32v10a2.89,2.89,0,0,0,.29,1.69A2.89,2.89,0,0,0,125.54,70.51Z"/><path d="M165.72,78.56a14,14,0,0,1-6.48-1.22,6.34,6.34,0,0,1-3.1-3.35,13.73,13.73,0,0,1-.83-4.95V59.39a12.51,12.51,0,0,1,.86-4.69,7,7,0,0,1,3.1-3.45,13,13,0,0,1,6.45-1.31H179a19.36,19.36,0,0,1,7.63,1.18,6.87,6.87,0,0,1,3.64,3.32,11.7,11.7,0,0,1,1,5v8.18H180q-5.75,0-8.72-.25c-2-.17-3.37-.28-4.18-.33v1c0,1.71,1,2.56,3.07,2.56h2c3.4,0,6.55-.07,9.45-.23s5.05-.28,6.45-.41l3.84,6.07c0,.43-.37.83-1.09,1.21a12.72,12.72,0,0,1-3.8,1,53.7,53.7,0,0,1-7.7.42Zm1.41-17.12H179.4v-.9a5,5,0,0,0-.23-1.79c-.15-.34-.6-.55-1.37-.63a38.87,38.87,0,0,0-3.9-.13h-3.7c-2,0-3.07.85-3.07,2.55Z"/><path d="M198.3,78.56V49.94h9.27l2.55,1.28q2.69-.51,6.49-.9c2.53-.25,4.91-.38,7.12-.38h3.19a11,11,0,0,1,4.92.89,5.64,5.64,0,0,1,2.46,2.24,7.47,7.47,0,0,1,.9,2.71,22.56,22.56,0,0,1,.16,2.34V78.56H223.67v-18c0-1.7-1-2.55-3.07-2.55H212a3.49,3.49,0,0,0-1.57.22c-.23.15-.35.54-.35,1.18V78.56Z"/><path d="M262.44,89.8q-6.57,0-10.73-.22a58.17,58.17,0,0,1-6.39-.61,10.08,10.08,0,0,1-3.06-.86c-.56-.32-.83-.63-.83-.93l3.19-6.7c.47.12,1.51.37,3.13.73a35,35,0,0,0,7.09.54h9.65a3.92,3.92,0,0,0,2.39-.57,2.23,2.23,0,0,0,.67-2V76.58a32.2,32.2,0,0,1-5.52.92c-2.37.24-5.12.36-8.27.36H251.9a13,13,0,0,1-6.29-1.19,5.69,5.69,0,0,1-2.75-3.29,16.9,16.9,0,0,1-.67-5v-9a15.72,15.72,0,0,1,.35-3.19,8.2,8.2,0,0,1,1.35-3.07,7.16,7.16,0,0,1,2.93-2.3,12.41,12.41,0,0,1,5.08-.89h1.92q4.47,0,7.28.13c1.88.08,3.38.19,4.51.32s2.07.25,2.84.38l1.66-.83h9.07V80.35a9.1,9.1,0,0,1-2.68,6.83q-2.69,2.63-8.95,2.62Zm-5.36-20h8.49a3.21,3.21,0,0,0,1.73-.26c.17-.17.25-.72.25-1.66V58.44c-.93-.09-1.84-.16-2.71-.23s-1.85-.12-2.94-.16-2.46-.06-4.12-.06h-.7c-2,0-3.07.85-3.07,2.55v6.71C254,69,255,69.81,257.08,69.81Z"/><path d="M296.24,78.56A12.49,12.49,0,0,1,290,77.31a6,6,0,0,1-2.75-3.41,16.14,16.14,0,0,1-.67-4.8V49.94h11.75V68c0,1.71,1,2.56,3.07,2.56h7.28a3,3,0,0,0,1.66-.26,3,3,0,0,0,.26-1.66V49.94h11.82V78.56H313.1l-2.42-1.28q-2.56.51-5.88.89a57.55,57.55,0,0,1-6.71.39Z"/><path d="M336.49,47.19q-6.47,0-6.46-5.49c0-2.05.55-3.46,1.63-4.25a10.72,10.72,0,0,1,9.78,0c1,.79,1.56,2.2,1.56,4.25Q343,47.19,336.49,47.19Zm-5.88,31.37V49.94h11.63V78.56Z"/><path d="M350.67,78.56V49.94h9.26l2.56,1.28c1.78-.34,3.95-.64,6.48-.9s4.91-.38,7.12-.38h3.2a11,11,0,0,1,4.92.89,5.64,5.64,0,0,1,2.46,2.24,7.45,7.45,0,0,1,.89,2.71,20.08,20.08,0,0,1,.16,2.34V78.56H376v-18c0-1.7-1-2.55-3.07-2.55H364.4a3.4,3.4,0,0,0-1.56.22c-.24.15-.35.54-.35,1.18V78.56Z"/><circle class="cls-1" cx="335.43" cy="41.88" r="7.93"/><path d="M112.31,44.56l8.92-17.9h7.92L138,44.56h-6.55L130,41.31h-9.62l-1.68,3.25Zm9.74-7.46h6.24l-2.95-6.48H125Z"/><path d="M150.85,44.56a18.41,18.41,0,0,1-3-.18c-.65-.12-1-.26-1-.43L148.66,40c.47.08,1.43.15,2.89.23s3.36.1,5.7.1h2.4a2.38,2.38,0,0,0,1.43-.3,1.09,1.09,0,0,0,.37-.89v-.3a1.15,1.15,0,0,0-.37-1,2.49,2.49,0,0,0-1.43-.28h-7a7.1,7.1,0,0,1-4.48-1.14,4.55,4.55,0,0,1-1.4-3.73v-1.1a5.89,5.89,0,0,1,.51-2.46A3.8,3.8,0,0,1,149,27.35a6.83,6.83,0,0,1,3.35-.69h10.1a18.86,18.86,0,0,1,3.09.21c.83.15,1.24.3,1.24.46l-.92,3.78c-.56-.06-1.64-.13-3.21-.2s-3.57-.11-6-.11l-2.19,0a2.58,2.58,0,0,0-1.34.26,1.1,1.1,0,0,0-.43,1v.21a1.07,1.07,0,0,0,.43,1,2.64,2.64,0,0,0,1.37.27h6.7a11.8,11.8,0,0,1,3.31.4,3.64,3.64,0,0,1,2.1,1.44,5.38,5.38,0,0,1,.73,3.09v1.1a5.54,5.54,0,0,1-1.17,3.68c-.78.94-2.13,1.4-4.06,1.4Z"/><path d="M183.76,44.56V30.77h-7.24V26.63H197v4.14h-7.34V44.56Z"/><path d="M226.51,44.87a11.22,11.22,0,0,1-2.71-.38,6.51,6.51,0,0,1-3-1.87l-1.28-1.28a13.81,13.81,0,0,0-1.75-1.5,6.27,6.27,0,0,0-1.91-.86,10.07,10.07,0,0,0-2.67-.29H213v5.87h-5.94V29.1l-.3-2.47h14.1a8.86,8.86,0,0,1,3.15.47,4.51,4.51,0,0,1,1.85,1.25,4.24,4.24,0,0,1,.9,1.75,8.26,8.26,0,0,1,.25,2v.58a5.9,5.9,0,0,1-.93,3.27A5.08,5.08,0,0,1,223.13,38c.51.3,1,.61,1.45.93s1,.64,1.56,1a9,9,0,0,0,1.88.83,8.38,8.38,0,0,0,1.44.32l.67.06-.91,3.44c-.24.06-.62.13-1.11.2A11.49,11.49,0,0,1,226.51,44.87Zm-10-10.23c.51,0,1,0,1.48,0s.91,0,1.29-.09a1.91,1.91,0,0,0,1.42-.66,2.19,2.19,0,0,0,.38-1.29v-.34a1.37,1.37,0,0,0-.38-1,2,2,0,0,0-1.39-.37H213v3.69l1.68.07C215.28,34.62,215.89,34.64,216.52,34.64Z"/><path d="M245.45,44.56c-2.16,0-3.72-.48-4.71-1.44s-1.47-2.5-1.47-4.62V32.69a6.23,6.23,0,0,1,1.46-4.57q1.46-1.46,4.72-1.46h8.89A6.45,6.45,0,0,1,259,28.12a6.23,6.23,0,0,1,1.48,4.57V38.5c0,2.12-.5,3.65-1.5,4.62a6.48,6.48,0,0,1-4.65,1.44Zm2.1-4.14h4.72q2.37,0,2.37-2.16V32.93q0-2.13-2.37-2.13h-4.72a2.84,2.84,0,0,0-1.83.49,2,2,0,0,0-.61,1.64v5.33a2.05,2.05,0,0,0,.61,1.65A2.78,2.78,0,0,0,247.55,40.42Z"/><path d="M272.05,44.56V29.1l-.3-2.44h5.6l8.59,8.71,1.18,1.34h.34v-10h5.85v17.9h-5.09l-8.83-8.8-1.19-1.43h-.3V44.56Z"/><path d="M302.68,44.56l8.92-17.9h7.92l8.89,17.9h-6.55l-1.49-3.25h-9.62l-1.67,3.25Zm9.74-7.46h6.25l-3-6.48h-.3Z"/><path d="M343.51,44.87a6.63,6.63,0,0,1-4.61-1.43q-1.57-1.44-1.57-4.63V26.66h5.94v11.6a2.19,2.19,0,0,0,.7,1.92,3,3,0,0,0,1.73.49h3.93a2.87,2.87,0,0,0,1.7-.51,2.13,2.13,0,0,0,.73-1.9V26.66h5.85V38.81q0,3.19-1.54,4.63a6.56,6.56,0,0,1-4.61,1.43Z"/><path d="M374.44,44.56V30.77H367.2V26.63h20.49v4.14h-7.34V44.56Z"/></g></g></svg>