<svg xmlns="http://www.w3.org/2000/svg" viewBox="0 0 439.68 400"><defs><style>.cls-1{fill:#fff;}</style></defs><g id="Layer_2" data-name="Layer 2"><g id="Layer_1-2" data-name="Layer 1"><path class="cls-1" d="M431.38,5.5c-7.5-6.36-19.28-7.27-31.46-2.38h0C387.09,8.26,37.29,158.3,23.05,164.43c-2.59.9-25.21,9.34-22.88,28.14,2.08,17,20.26,24,22.48,24.78l88.93,30.45c5.9,19.64,27.65,92.1,32.46,107.58,3,9.65,7.89,22.33,16.46,24.94,7.52,2.9,15,.25,19.84-3.55l54.37-50.43,87.77,68.45,2.09,1.25a42.26,42.26,0,0,0,17.12,4,31.68,31.68,0,0,0,12.11-2.37c13.15-5.4,18.41-17.93,19-19.35L438.32,37.51C442.32,19.31,436.76,10.05,431.38,5.5ZM190,260l-30,80L130,240,360,70Z"/></g></g></svg>