<svg xmlns="http://www.w3.org/2000/svg" viewBox="0 0 416.02 338.06"><defs><style>.cls-1{fill:#fff;}</style></defs><g id="Layer_2" data-name="Layer 2"><g id="Layer_1-2" data-name="Layer 1"><path class="cls-1" d="M416,40a170.62,170.62,0,0,1-49,13.44A85.5,85.5,0,0,0,404.51,6.24,171,171,0,0,1,350.3,27,85.37,85.37,0,0,0,202.67,85.34a86.26,86.26,0,0,0,2.21,19.44A242.27,242.27,0,0,1,29,15.6a85.49,85.49,0,0,0,26.42,114,85.23,85.23,0,0,1-38.66-10.67V120a85.36,85.36,0,0,0,68.46,83.68,85.42,85.42,0,0,1-22.49,3,86.56,86.56,0,0,1-16-1.52,85.43,85.43,0,0,0,79.73,59.28,171.16,171.16,0,0,1-106,36.55A171.54,171.54,0,0,1,0,299.73a241.6,241.6,0,0,0,130.83,38.33c157,0,242.82-130,242.82-242.83q0-5.53-.24-11A173.72,173.72,0,0,0,416,40Z"/></g></g></svg>